<svg xmlns="http://www.w3.org/2000/svg" x="0px" y="0px" width="100" height="100" viewBox="0,0,255.99609,255.99609">
<g fill-opacity="0" fill="#dddddd" fill-rule="nonzero" stroke="none" stroke-width="1" stroke-linecap="butt" stroke-linejoin="miter" stroke-miterlimit="10" stroke-dasharray="" stroke-dashoffset="0" font-family="none" font-weight="none" font-size="none" text-anchor="none" style="mix-blend-mode: normal"><path d="M0,255.99609v-255.99609h255.99609v255.99609z" id="bgRectangle"></path></g><g fill="none" fill-rule="nonzero" stroke="none" stroke-width="1" stroke-linecap="butt" stroke-linejoin="miter" stroke-miterlimit="10" stroke-dasharray="" stroke-dashoffset="0" font-family="none" font-weight="none" font-size="none" text-anchor="none" style="mix-blend-mode: normal"><g transform="scale(2.56,2.56)"><path d="M65.637,77.329l-39.966,10.682c-2.04,0.545 -4.136,-0.667 -4.682,-2.707l-15.1,-56.495c-0.545,-2.04 0.667,-4.136 2.707,-4.682l39.966,-10.682c2.04,-0.545 4.136,0.667 4.682,2.707l15.1,56.495c0.545,2.04 -0.667,4.136 -2.707,4.682z" fill="#0262b8"></path><path d="M24.674,89.143c-0.836,0 -1.662,-0.22 -2.406,-0.649c-1.116,-0.646 -1.913,-1.687 -2.246,-2.932l-15.1,-56.494c-0.333,-1.245 -0.161,-2.545 0.484,-3.66c0.645,-1.115 1.686,-1.913 2.931,-2.245l39.966,-10.683c2.573,-0.69 5.219,0.846 5.906,3.415l15.1,56.494c0.333,1.245 0.161,2.545 -0.484,3.66c-0.645,1.115 -1.686,1.913 -2.931,2.245l-39.965,10.683c-0.415,0.111 -0.836,0.166 -1.255,0.166zM49.548,14.315c-0.241,0 -0.485,0.031 -0.729,0.096l-39.965,10.683c-0.729,0.195 -1.338,0.662 -1.716,1.314c-0.377,0.653 -0.478,1.414 -0.283,2.144l15.1,56.494c0.195,0.729 0.662,1.338 1.314,1.716c0.653,0.378 1.414,0.477 2.143,0.283l39.967,-10.683c0.729,-0.195 1.338,-0.662 1.715,-1.314c0.377,-0.653 0.478,-1.414 0.283,-2.144l-15.1,-56.494c-0.336,-1.261 -1.481,-2.095 -2.729,-2.095z" fill="#1d1d1b"></path><path d="M69.2,79.135h-41.37c-2.112,0 -3.824,-1.712 -3.824,-3.824v-58.478c0,-2.112 1.712,-3.824 3.824,-3.824h41.37c2.112,0 3.824,1.712 3.824,3.824v58.478c0,2.112 -1.713,3.824 -3.824,3.824z" fill="#55a7f9"></path><path d="M69.2,80.136h-41.37c-2.66,0 -4.824,-2.164 -4.824,-4.824v-58.479c0,-2.659 2.164,-4.823 4.824,-4.823h41.37c2.66,0 4.824,2.164 4.824,4.823v58.479c-0.001,2.66 -2.165,4.824 -4.824,4.824zM27.83,14.01c-1.557,0 -2.824,1.267 -2.824,2.823v58.479c0,1.558 1.267,2.824 2.824,2.824h41.37c1.557,0 2.824,-1.267 2.824,-2.824v-58.479c0,-1.557 -1.267,-2.823 -2.824,-2.823z" fill="#1d1d1b"></path><path d="M74.445,87.665l-40.282,-11.029c-2.037,-0.558 -3.236,-2.661 -2.678,-4.698l15.533,-56.732c0.558,-2.037 2.661,-3.236 4.698,-2.678l40.281,11.029c2.037,0.558 3.236,2.661 2.678,4.698l-15.532,56.732c-0.558,2.037 -2.661,3.236 -4.698,2.678z" fill="#ffffff"></path><path d="M75.454,88.802c-0.421,0 -0.848,-0.056 -1.273,-0.172l-40.282,-11.028c-2.565,-0.704 -4.081,-3.362 -3.379,-5.927l15.534,-56.732c0.34,-1.243 1.144,-2.279 2.263,-2.917c1.119,-0.639 2.419,-0.801 3.663,-0.463l40.282,11.029c1.243,0.341 2.279,1.145 2.917,2.264c0.638,1.12 0.802,2.421 0.461,3.663l-15.533,56.732c-0.586,2.141 -2.534,3.551 -4.653,3.551zM74.709,86.7c1.503,0.414 3.059,-0.476 3.47,-1.977l15.533,-56.732c0.411,-1.503 -0.476,-3.059 -1.978,-3.47l-40.282,-11.029c-0.725,-0.2 -1.488,-0.104 -2.144,0.271c-0.655,0.373 -1.126,0.979 -1.325,1.707l-15.534,56.732c-0.411,1.502 0.477,3.059 1.979,3.47z" fill="#1d1d1b"></path><path d="M60.6,56.876c0,0 -2.532,4.75 -8.776,2.997c-6.101,-1.712 -5.405,-8.295 -4.495,-10.863c0.91,-2.569 4.923,-5.78 9.311,-7.492c4.388,-1.712 10.061,-6.475 10.061,-6.475c0,0 2.729,7.064 3.96,8.937c1.231,1.873 5.145,7.439 5.084,11.131c-0.054,3.211 -2.943,11.077 -10.81,8.188c-4.478,-1.646 -4.335,-6.423 -4.335,-6.423z" fill="#9898ad"></path><path d="M68.145,64.919c-1.041,0 -2.224,-0.193 -3.555,-0.683c-2.743,-1.007 -4.079,-3.143 -4.643,-5.012c-1.686,1.479 -4.505,2.702 -8.394,1.611c-2.24,-0.629 -3.869,-1.898 -4.842,-3.774c-1.546,-2.98 -0.932,-6.674 -0.325,-8.386c1.007,-2.844 5.167,-6.246 9.89,-8.09c4.182,-1.631 9.726,-6.263 9.781,-6.309c0.247,-0.208 0.581,-0.281 0.892,-0.203c0.313,0.081 0.567,0.308 0.684,0.608c0.749,1.938 2.902,7.285 3.863,8.748l0.319,0.48c1.62,2.432 4.991,7.492 4.929,11.216c-0.036,2.158 -1.25,6.375 -4.355,8.504c-0.965,0.664 -2.373,1.29 -4.244,1.29zM61.6,56.903v0c-0.003,0.166 -0.046,4.088 3.68,5.456c2.346,0.86 4.357,0.734 5.979,-0.378c2.353,-1.613 3.455,-4.999 3.486,-6.888c0.052,-3.101 -3.204,-7.987 -4.594,-10.074l-0.326,-0.491c-0.957,-1.455 -2.699,-5.7 -3.556,-7.852c-1.885,1.482 -5.893,4.457 -9.266,5.772c-4.093,1.598 -7.929,4.626 -8.732,6.895c-0.464,1.312 -1.017,4.42 0.216,6.797c0.708,1.365 1.921,2.297 3.607,2.77c5.359,1.504 7.537,-2.345 7.626,-2.509c0.223,-0.405 0.695,-0.611 1.141,-0.486c0.446,0.121 0.751,0.527 0.739,0.988z" fill="#1d1d1b"></path><path d="M60.333,57.84l-6.903,9.311c3.312,-0.437 6.154,-0.053 8.081,1.927z" fill="#9898ad"></path><path d="M61.511,70.078c-0.265,0 -0.524,-0.104 -0.717,-0.303c-1.522,-1.564 -3.82,-2.083 -7.233,-1.633c-0.399,0.05 -0.789,-0.138 -0.993,-0.484c-0.204,-0.346 -0.181,-0.78 0.059,-1.103l6.903,-9.312c0.246,-0.332 0.669,-0.476 1.067,-0.369c0.397,0.109 0.688,0.45 0.731,0.86l1.177,11.238c0.044,0.424 -0.185,0.829 -0.57,1.01c-0.136,0.065 -0.281,0.096 -0.424,0.096zM55.703,65.991c1.791,0 3.311,0.318 4.58,0.961l-0.676,-6.453l-4.072,5.493c0.055,0 0.111,-0.001 0.168,-0.001z" fill="#1d1d1b"></path><path d="M72.248,79.167c0,0 -0.804,1.508 -2.786,0.951c-1.937,-0.544 -1.716,-2.634 -1.427,-3.449c0.289,-0.816 1.563,-1.835 2.956,-2.379c1.393,-0.544 3.194,-2.056 3.194,-2.056c0,0 0.867,2.243 1.257,2.837c0.391,0.595 1.634,2.362 1.614,3.534c-0.017,1.019 -0.934,3.517 -3.432,2.6c-1.422,-0.521 -1.376,-2.038 -1.376,-2.038z" fill="#9898ad"></path><path d="M74.645,81.904c-0.351,0 -0.748,-0.065 -1.193,-0.229c-0.863,-0.317 -1.29,-0.922 -1.5,-1.46c-0.584,0.422 -1.465,0.71 -2.625,0.385c-0.751,-0.211 -1.321,-0.657 -1.65,-1.29c-0.485,-0.937 -0.365,-2.098 -0.113,-2.808c0.336,-0.948 1.701,-2.075 3.246,-2.678c1.299,-0.507 3.037,-1.958 3.055,-1.973c0.123,-0.104 0.29,-0.143 0.446,-0.102c0.156,0.04 0.284,0.153 0.342,0.304c0.236,0.61 0.912,2.292 1.209,2.743l0.101,0.152c0.524,0.787 1.615,2.426 1.595,3.665c-0.012,0.749 -0.412,2.127 -1.461,2.847c-0.333,0.229 -0.815,0.444 -1.452,0.444zM72.748,79.179v0c-0.001,0.048 -0.007,1.17 1.048,1.558c0.687,0.252 1.269,0.221 1.732,-0.099c0.686,-0.471 1.019,-1.495 1.027,-2.039c0.016,-0.928 -1.033,-2.502 -1.427,-3.095l-0.104,-0.157c-0.284,-0.433 -0.762,-1.569 -1.056,-2.3c-0.66,0.506 -1.809,1.324 -2.796,1.71c-1.383,0.54 -2.461,1.5 -2.667,2.08c-0.138,0.391 -0.304,1.314 0.059,2.013c0.204,0.393 0.541,0.65 1.033,0.788c1.53,0.427 2.146,-0.592 2.212,-0.71c0.112,-0.2 0.351,-0.305 0.571,-0.24c0.221,0.06 0.373,0.262 0.368,0.491z" fill="#1d1d1b"></path><path d="M72.163,79.473l-2.192,2.956c1.052,-0.139 1.954,-0.017 2.566,0.612z" fill="#9898ad"></path><path d="M72.537,83.541c-0.132,0 -0.262,-0.053 -0.358,-0.151c-0.439,-0.451 -1.12,-0.601 -2.142,-0.464c-0.199,0.028 -0.395,-0.07 -0.496,-0.242c-0.102,-0.173 -0.09,-0.391 0.029,-0.552l2.192,-2.957c0.123,-0.165 0.336,-0.238 0.534,-0.185c0.199,0.055 0.344,0.226 0.365,0.431l0.374,3.568c0.022,0.212 -0.092,0.414 -0.285,0.505c-0.069,0.031 -0.142,0.047 -0.213,0.047zM70.995,81.889c0.344,0.021 0.656,0.084 0.938,0.186l-0.133,-1.272z" fill="#1d1d1b"></path><path d="M53.464,25.707c0,0 -0.804,1.508 -2.786,0.951c-1.937,-0.544 -1.716,-2.634 -1.427,-3.449c0.289,-0.816 1.563,-1.835 2.956,-2.379c1.393,-0.544 3.194,-2.056 3.194,-2.056c0,0 0.867,2.243 1.257,2.837c0.391,0.595 1.634,2.362 1.614,3.534c-0.017,1.019 -0.934,3.517 -3.432,2.6c-1.421,-0.522 -1.376,-2.038 -1.376,-2.038z" fill="#9898ad"></path><path d="M55.862,28.443c-0.351,0 -0.748,-0.065 -1.193,-0.229c-0.863,-0.317 -1.29,-0.922 -1.5,-1.46c-0.584,0.421 -1.466,0.71 -2.625,0.385c-0.751,-0.211 -1.322,-0.657 -1.65,-1.291c-0.485,-0.937 -0.364,-2.098 -0.113,-2.807c0.335,-0.948 1.7,-2.074 3.246,-2.678c1.299,-0.507 3.037,-1.958 3.055,-1.973c0.123,-0.104 0.29,-0.144 0.446,-0.102c0.156,0.04 0.284,0.153 0.342,0.304c0.236,0.61 0.913,2.293 1.209,2.744l0.099,0.149c0.525,0.787 1.618,2.427 1.597,3.667c-0.013,0.75 -0.413,2.128 -1.462,2.848c-0.334,0.229 -0.814,0.443 -1.451,0.443zM53.964,25.72c-0.001,0.058 -0.002,1.171 1.049,1.556c0.687,0.252 1.27,0.221 1.732,-0.099c0.686,-0.47 1.019,-1.495 1.028,-2.04c0.016,-0.928 -1.034,-2.502 -1.429,-3.095l-0.103,-0.155c-0.285,-0.433 -0.762,-1.57 -1.057,-2.301c-0.66,0.506 -1.809,1.324 -2.796,1.71c-1.383,0.54 -2.461,1.5 -2.667,2.08c-0.138,0.391 -0.304,1.313 0.058,2.013c0.204,0.393 0.541,0.65 1.033,0.788c1.531,0.432 2.146,-0.591 2.212,-0.709c0.112,-0.202 0.352,-0.305 0.571,-0.24c0.222,0.06 0.375,0.262 0.369,0.492z" fill="#1d1d1b"></path><path d="M53.379,26.012l-2.192,2.956c1.052,-0.139 1.954,-0.017 2.566,0.612z" fill="#9898ad"></path><path d="M53.753,30.08c-0.132,0 -0.262,-0.053 -0.358,-0.151c-0.44,-0.451 -1.119,-0.601 -2.143,-0.464c-0.201,0.03 -0.395,-0.069 -0.497,-0.242c-0.102,-0.173 -0.09,-0.391 0.029,-0.552l2.192,-2.956c0.123,-0.165 0.336,-0.238 0.534,-0.185c0.199,0.055 0.344,0.226 0.365,0.431l0.374,3.567c0.022,0.211 -0.092,0.414 -0.285,0.505c-0.066,0.031 -0.139,0.047 -0.211,0.047zM52.211,28.428c0.344,0.022 0.656,0.084 0.938,0.187l-0.133,-1.272z" fill="#1d1d1b"></path><path d="M80.135,67.276c-0.042,0 -0.085,-0.005 -0.128,-0.017c-0.267,-0.07 -0.426,-0.344 -0.356,-0.61l0.632,-2.398c0.071,-0.268 0.345,-0.43 0.611,-0.356c0.267,0.07 0.426,0.344 0.356,0.61l-0.632,2.398c-0.059,0.225 -0.262,0.373 -0.483,0.373z" fill="#1d1d1b"></path><path d="M81.452,62.348c-0.044,0 -0.088,-0.006 -0.132,-0.018c-0.267,-0.073 -0.423,-0.349 -0.351,-0.614l0.823,-3.006c0.073,-0.268 0.35,-0.421 0.614,-0.351c0.267,0.073 0.423,0.349 0.351,0.614l-0.823,3.006c-0.061,0.223 -0.262,0.369 -0.482,0.369z" fill="#1d1d1b"></path><g fill="#1d1d1b"><path d="M83.025,56.922c-0.043,0 -0.087,-0.006 -0.13,-0.018c-0.267,-0.071 -0.425,-0.346 -0.353,-0.612l7.451,-27.649c0.171,-0.623 -0.196,-1.267 -0.818,-1.438l-15.912,-4.255c-0.267,-0.071 -0.425,-0.346 -0.354,-0.612c0.072,-0.267 0.347,-0.42 0.612,-0.354l15.915,4.256c1.156,0.318 1.837,1.513 1.521,2.665l-7.45,27.647c-0.06,0.223 -0.262,0.37 -0.482,0.37z"></path></g><g fill="#1d1d1b"><path d="M71.456,22.362c-0.042,0 -0.084,-0.005 -0.127,-0.017l-4.069,-1.062c-0.267,-0.069 -0.427,-0.343 -0.357,-0.609c0.07,-0.268 0.343,-0.431 0.61,-0.357l4.069,1.062c0.267,0.069 0.427,0.343 0.357,0.609c-0.058,0.226 -0.261,0.374 -0.483,0.374z"></path></g><g fill="#1d1d1b"><path d="M65.605,20.834c-0.042,0 -0.084,-0.005 -0.127,-0.017l-2.488,-0.649c-0.267,-0.069 -0.427,-0.343 -0.357,-0.609c0.069,-0.269 0.345,-0.432 0.61,-0.357l2.488,0.649c0.267,0.069 0.427,0.343 0.357,0.609c-0.058,0.226 -0.261,0.374 -0.483,0.374z"></path></g><g fill="#1d1d1b"><path d="M42.777,47.051c-0.044,0 -0.089,-0.006 -0.133,-0.018c-0.266,-0.073 -0.422,-0.349 -0.349,-0.615l0.445,-1.615c0.073,-0.267 0.348,-0.42 0.615,-0.35c0.266,0.073 0.422,0.349 0.349,0.615l-0.445,1.615c-0.062,0.222 -0.263,0.368 -0.482,0.368z"></path></g><g fill="#1d1d1b"><path d="M41.348,51.648c-0.044,0 -0.089,-0.006 -0.133,-0.018c-0.266,-0.073 -0.422,-0.349 -0.349,-0.615l0.705,-2.559c0.073,-0.267 0.348,-0.422 0.615,-0.35c0.266,0.073 0.422,0.349 0.349,0.615l-0.705,2.559c-0.061,0.223 -0.263,0.368 -0.482,0.368z"></path></g><g fill="#1d1d1b"><path d="M55.449,79.329c-0.044,0 -0.088,-0.006 -0.132,-0.018l-18.662,-5.109c-1.153,-0.315 -1.834,-1.511 -1.519,-2.664l5.163,-18.747c0.073,-0.267 0.348,-0.422 0.615,-0.35c0.266,0.073 0.422,0.349 0.349,0.615l-5.163,18.747c-0.17,0.621 0.197,1.265 0.818,1.435l18.662,5.109c0.267,0.073 0.423,0.348 0.351,0.614c-0.061,0.223 -0.263,0.368 -0.482,0.368z"></path></g><g fill="#1d1d1b"><path d="M61.292,80.93c-0.044,0 -0.088,-0.006 -0.132,-0.018l-3.758,-1.029c-0.267,-0.073 -0.423,-0.349 -0.351,-0.614c0.073,-0.268 0.351,-0.422 0.614,-0.351l3.758,1.029c0.267,0.073 0.423,0.349 0.351,0.614c-0.062,0.223 -0.263,0.369 -0.482,0.369z"></path></g><g fill="#1d1d1b"><path d="M65.571,82.101c-0.044,0 -0.088,-0.006 -0.132,-0.018l-2.412,-0.66c-0.267,-0.073 -0.423,-0.348 -0.351,-0.614c0.074,-0.268 0.35,-0.421 0.614,-0.351l2.412,0.66c0.267,0.073 0.423,0.348 0.351,0.614c-0.061,0.223 -0.262,0.369 -0.482,0.369z"></path></g><g fill="#1d1d1b"><path d="M66.78,60.377c-0.747,0 -1.536,-0.114 -2.354,-0.344c-0.266,-0.075 -0.421,-0.351 -0.346,-0.617c0.075,-0.265 0.356,-0.42 0.617,-0.346c2.664,0.749 4.292,0.015 5.19,-0.731c1.064,-0.887 1.672,-2.312 1.55,-3.634c-0.229,-2.481 -2.609,-6.335 -3.622,-7.877c-0.731,-1.112 -2.113,-4.525 -2.682,-5.962c-1.234,0.985 -4.344,3.353 -6.928,4.361c-3.035,1.185 -5.886,3.449 -6.491,5.156c-0.604,1.704 -0.465,3.282 0.411,4.691c0.377,0.606 1.33,1.564 3.435,1.177c0.276,-0.053 0.533,0.128 0.583,0.4c0.05,0.271 -0.129,0.532 -0.4,0.582c-2.794,0.523 -4.055,-0.969 -4.466,-1.631c-1.03,-1.657 -1.204,-3.577 -0.504,-5.554c0.713,-2.014 3.686,-4.434 7.07,-5.754c3.081,-1.202 7.145,-4.599 7.186,-4.633c0.124,-0.104 0.291,-0.142 0.446,-0.102c0.156,0.04 0.284,0.153 0.342,0.305c0.02,0.051 1.978,5.109 2.835,6.413c1.309,1.993 3.541,5.726 3.782,8.334c0.154,1.664 -0.577,3.387 -1.907,4.493c-1.009,0.843 -2.297,1.273 -3.747,1.273z"></path></g></g></g>
</svg>