<svg xmlns="http://www.w3.org/2000/svg" version="1.1" xmlns:xlink="http://www.w3.org/1999/xlink" xmlns:svgjs="http://svgjs.dev/svgjs" width="1440" height="700" preserveAspectRatio="none" viewBox="0 0 1440 700"><g mask="url(&quot;#SvgjsMask1394&quot;)" fill="none"><rect width="1440" height="700" x="0" y="0" fill="url(&quot;#SvgjsRadialGradient1395&quot;)"></rect><path d="M1184.0984892408035 96.56238703965072L1422.46633264715 84.29783998029572 1311.9004716557033-92.64452509746937z" fill="rgba(28, 83, 142, 0.41)" class="triangle-float1"></path><path d="M797.0084189949122 418.3877427187318L786.0846856575101 209.9504937674692 588.5711700436495 429.31147605613387z" fill="rgba(28, 83, 142, 0.41)" class="triangle-float1"></path><path d="M1138.2767431858906 96.30973475651815L1021.5495572555789-64.35145358544007 860.8883689136206 52.37573234487171 977.6155548439324 213.03692068682994z" fill="rgba(28, 83, 142, 0.41)" class="triangle-float2"></path><path d="M237.56193367108122 338.47039103906286L407.5525479203237 240.32626414255276 139.41780677457112 168.47977678982036z" fill="rgba(28, 83, 142, 0.41)" class="triangle-float1"></path><path d="M1458.0178954815233 233.4263838536889L1483.6959259496043 50.717703330646344 1275.3092149584807 207.7483533856079z" fill="rgba(28, 83, 142, 0.41)" class="triangle-float3"></path><path d="M84.52411341358294-18.26617268473101L36.38816666414004 89.84893386121288 144.50327321008393 137.98488061065578 192.63921995952683 29.86977406471189z" fill="rgba(28, 83, 142, 0.41)" class="triangle-float3"></path><path d="M311.961,559.982C352.949,561.713,397.32,551.095,417.861,515.583C438.423,480.035,424.849,436.675,403.618,401.523C383.253,367.806,351.309,338.437,311.961,340.247C274.739,341.959,251.728,376.651,233.83,409.332C216.872,440.296,204.244,475.907,220.498,507.247C237.864,540.731,274.276,558.39,311.961,559.982" fill="rgba(28, 83, 142, 0.41)" class="triangle-float1"></path><path d="M512.8334857456078 436.10873366516626L353.20469274117715 461.39145070485426 378.48740978086516 621.020243709285 538.1162027852959 595.737526669597z" fill="rgba(28, 83, 142, 0.41)" class="triangle-float3"></path><path d="M799.3810808027255 489.15845507063835L786.3046912561574 364.74491917920375 606.2225821922895 446.5662714447732z" fill="rgba(28, 83, 142, 0.41)" class="triangle-float3"></path><path d="M398.511494759115 317.0257528594832L289.1434108831523 234.61099030276938 220.2053089860629 439.8704973950704z" fill="rgba(28, 83, 142, 0.41)" class="triangle-float2"></path><path d="M1398.777,351.526C1463.874,353.391,1523.89,314.131,1554.388,256.59C1583.154,202.317,1571.776,137.777,1539.9,85.271C1509.356,34.959,1457.624,1.405,1398.777,0.269C1337.879,-0.907,1277.993,26.684,1247.89,79.634C1218.092,132.047,1228.627,195.377,1257.882,248.094C1288.182,302.694,1336.359,349.737,1398.777,351.526" fill="rgba(28, 83, 142, 0.41)" class="triangle-float1"></path><path d="M156.44626652194006 23.682408491778705L27.393667369989373-13.32282883522419-9.61156995701353 115.72977031672649 119.44102919493716 152.7350076437294z" fill="rgba(28, 83, 142, 0.41)" class="triangle-float2"></path><path d="M403.717,389.961C467.839,393.343,521.443,346.808,554.082,291.511C587.358,235.134,605.329,163.78,569.593,108.929C535.904,57.221,465.248,55.976,403.717,60.719C351.99,64.706,302.905,86.589,276.913,131.488C250.871,176.475,255.634,230.308,278.528,276.976C305.064,331.066,343.553,386.787,403.717,389.961" fill="rgba(28, 83, 142, 0.41)" class="triangle-float2"></path></g><defs><mask id="SvgjsMask1394"><rect width="1440" height="700" fill="#ffffff"></rect></mask><radialGradient cx="100%" cy="100%" r="1601.12" gradientUnits="userSpaceOnUse" id="SvgjsRadialGradient1395"><stop stop-color="#0e2a47" offset="0"></stop><stop stop-color="rgba(3, 12, 23, 1)" offset="0.28"></stop></radialGradient></defs></svg>